<svg width="24" height="24" viewBox="0 0 24 24" fill="none" xmlns="http://www.w3.org/2000/svg">
<path d="M12 21.9102C10.6263 21.9102 9.33724 21.6497 8.13281 21.1289C6.92839 20.6146 5.87044 19.9017 4.95898 18.9902C4.04753 18.0723 3.33138 17.0143 2.81055 15.8164C2.29622 14.612 2.03906 13.3229 2.03906 11.9492C2.03906 10.5755 2.29622 9.28646 2.81055 8.08203C3.33138 6.8776 4.04753 5.81966 4.95898 4.9082C5.87044 3.99674 6.92839 3.28385 8.13281 2.76953C9.33724 2.2487 10.6263 1.98828 12 1.98828C13.3737 1.98828 14.6628 2.2487 15.8672 2.76953C17.0716 3.28385 18.1296 3.99674 19.041 4.9082C19.9525 5.81966 20.6654 6.8776 21.1797 8.08203C21.7005 9.28646 21.9609 10.5755 21.9609 11.9492C21.9609 13.3229 21.7005 14.612 21.1797 15.8164C20.6654 17.0143 19.9525 18.0723 19.041 18.9902C18.1296 19.9017 17.0716 20.6146 15.8672 21.1289C14.6628 21.6497 13.3737 21.9102 12 21.9102ZM12 17.5547C12.0977 17.5547 12.1758 17.5221 12.2344 17.457C12.2995 17.3854 12.332 17.3073 12.332 17.2227V16.3438C12.8594 16.3112 13.3411 16.2005 13.7773 16.0117C14.2201 15.8229 14.5716 15.5495 14.832 15.1914C15.099 14.8268 15.2324 14.3711 15.2324 13.8242C15.2324 13.3229 15.112 12.9128 14.8711 12.5938C14.6302 12.2747 14.3112 12.0241 13.9141 11.8418C13.5234 11.6595 13.1003 11.513 12.6445 11.4023L12.332 11.334V8.41406C12.7422 8.45964 13.0872 8.58659 13.3672 8.79492C13.6471 9.00326 13.849 9.29622 13.9727 9.67383C14.0247 9.83008 14.0964 9.94727 14.1875 10.0254C14.2852 10.097 14.4023 10.1328 14.5391 10.1328C14.6693 10.1328 14.793 10.0905 14.9102 10.0059C15.0273 9.92122 15.0859 9.79102 15.0859 9.61523C15.0859 9.2181 14.9492 8.86328 14.6758 8.55078C14.4023 8.23177 14.054 7.97461 13.6309 7.7793C13.2142 7.57747 12.7812 7.45703 12.332 7.41797V6.55859C12.332 6.47396 12.2995 6.39909 12.2344 6.33398C12.1758 6.26237 12.0977 6.22656 12 6.22656C11.9089 6.22656 11.8307 6.26237 11.7656 6.33398C11.7005 6.39909 11.668 6.47396 11.668 6.55859V7.41797C11.1732 7.45703 10.7174 7.58073 10.3008 7.78906C9.88411 7.99089 9.54883 8.26758 9.29492 8.61914C9.04753 8.9707 8.92383 9.38737 8.92383 9.86914C8.92383 10.3704 9.04427 10.7773 9.28516 11.0898C9.53255 11.4023 9.84831 11.6465 10.2324 11.8223C10.6165 11.998 11.0137 12.1348 11.4238 12.2324L11.668 12.3008V15.3477C11.2318 15.3086 10.8607 15.1882 10.5547 14.9863C10.2552 14.7845 10.0273 14.472 9.87109 14.0488C9.80599 13.8991 9.72786 13.7884 9.63672 13.7168C9.55208 13.6452 9.44466 13.6094 9.31445 13.6094C9.16471 13.6094 9.03451 13.6582 8.92383 13.7559C8.81966 13.847 8.76758 13.974 8.76758 14.1367C8.76758 14.2214 8.78711 14.3288 8.82617 14.459C9.00195 15.0645 9.36654 15.5202 9.91992 15.8262C10.4733 16.1257 11.056 16.2982 11.668 16.3438V17.2227C11.668 17.3073 11.7005 17.3854 11.7656 17.457C11.8307 17.5221 11.9089 17.5547 12 17.5547ZM10.0566 9.78125C10.0566 9.5013 10.1315 9.26693 10.2812 9.07812C10.4375 8.88932 10.6393 8.74284 10.8867 8.63867C11.1341 8.52799 11.3945 8.45312 11.668 8.41406V11.1777L11.5996 11.1582C11.3197 11.0931 11.0625 11.0052 10.8281 10.8945C10.5938 10.7773 10.4049 10.6309 10.2617 10.4551C10.125 10.2728 10.0566 10.0482 10.0566 9.78125ZM12.332 15.3574V12.4473L12.4297 12.4766C12.8724 12.5872 13.263 12.7435 13.6016 12.9453C13.9401 13.1406 14.1094 13.4629 14.1094 13.9121C14.1094 14.4134 13.9271 14.7715 13.5625 14.9863C13.2044 15.1947 12.7943 15.3184 12.332 15.3574Z" fill="#FF2B00"/>
</svg>
