<svg width="24" height="24" viewBox="0 0 24 24" fill="none" xmlns="http://www.w3.org/2000/svg">
<path d="M12 4.625C11.6484 4.625 11.3457 4.48503 11.0918 4.20508C10.8444 3.92513 10.7207 3.58008 10.7207 3.16992C10.7207 2.73372 10.7891 2.36589 10.9258 2.06641C11.069 1.76042 11.2578 1.46419 11.4922 1.17773C11.6484 1.00846 11.8242 0.927083 12.0195 0.933594C12.2148 0.940104 12.3906 1.04102 12.5469 1.23633C12.7812 1.50977 12.9603 1.79622 13.084 2.0957C13.2142 2.39518 13.2793 2.75326 13.2793 3.16992C13.2793 3.58008 13.1556 3.92513 12.9082 4.20508C12.6608 4.48503 12.3581 4.625 12 4.625ZM11.4434 9.12695V3.58008H12.5273V9.12695H11.4434ZM5.62305 12.1445V11.4609C5.62305 10.4974 5.87044 9.77148 6.36523 9.2832C6.86654 8.78841 7.60547 8.54102 8.58203 8.54102H15.418C16.3945 8.54102 17.1302 8.78841 17.625 9.2832C18.1263 9.77148 18.377 10.4974 18.377 11.4609V12.1445H5.62305ZM2.29297 22.3691V16.3926C2.29297 15.429 2.54036 14.7031 3.03516 14.2148C3.53646 13.7201 4.27539 13.4727 5.25195 13.4727H18.748C19.7246 13.4727 20.4603 13.7201 20.9551 14.2148C21.4499 14.7031 21.6973 15.429 21.6973 16.3926V22.3691H2.29297ZM11.9902 18.248C12.2311 18.248 12.459 18.3066 12.6738 18.4238C12.8952 18.5345 13.1198 18.6647 13.3477 18.8145C13.582 18.9642 13.8359 19.0944 14.1094 19.2051C14.3828 19.3223 14.6953 19.3809 15.0469 19.3809C15.3789 19.3809 15.6751 19.3223 15.9355 19.2051C16.196 19.0944 16.4336 18.9642 16.6484 18.8145C16.8698 18.6647 17.0814 18.5345 17.2832 18.4238C17.4915 18.3066 17.7096 18.248 17.9375 18.248C18.1654 18.248 18.3835 18.3066 18.5918 18.4238C18.8001 18.5345 19.028 18.6647 19.2754 18.8145C19.5228 18.9642 19.8092 19.0944 20.1348 19.2051C20.4603 19.3223 20.8509 19.3809 21.3066 19.3809H21.6973V18.0918H21.3066C20.9616 18.0918 20.6523 18.0365 20.3789 17.9258C20.1055 17.8086 19.8451 17.6751 19.5977 17.5254C19.3503 17.3757 19.0931 17.2454 18.8262 17.1348C18.5592 17.0176 18.263 16.959 17.9375 16.959C17.6055 16.959 17.3158 17.0176 17.0684 17.1348C16.8275 17.2454 16.6029 17.3757 16.3945 17.5254C16.1862 17.6751 15.9746 17.8086 15.7598 17.9258C15.5514 18.0365 15.3138 18.0918 15.0469 18.0918C14.7344 18.0918 14.4577 18.0365 14.2168 17.9258C13.9824 17.8086 13.7578 17.6751 13.543 17.5254C13.3281 17.3757 13.097 17.2454 12.8496 17.1348C12.6087 17.0176 12.3223 16.959 11.9902 16.959C11.6582 16.959 11.3685 17.0176 11.1211 17.1348C10.8802 17.2454 10.6523 17.3757 10.4375 17.5254C10.2227 17.6751 9.99805 17.8086 9.76367 17.9258C9.5293 18.0365 9.25586 18.0918 8.94336 18.0918C8.67643 18.0918 8.43555 18.0365 8.2207 17.9258C8.00586 17.8086 7.79427 17.6751 7.58594 17.5254C7.3776 17.3757 7.14974 17.2454 6.90234 17.1348C6.66146 17.0176 6.37826 16.959 6.05273 16.959C5.7207 16.959 5.42122 17.0176 5.1543 17.1348C4.88737 17.2454 4.63021 17.3757 4.38281 17.5254C4.13542 17.6751 3.87174 17.8086 3.5918 17.9258C3.31836 18.0365 3.00911 18.0918 2.66406 18.0918H2.29297V19.3809H2.66406C3.11979 19.3809 3.51042 19.3223 3.83594 19.2051C4.16797 19.0944 4.45443 18.9642 4.69531 18.8145C4.94271 18.6647 5.17383 18.5345 5.38867 18.4238C5.60352 18.3066 5.82487 18.248 6.05273 18.248C6.2806 18.248 6.49544 18.3066 6.69727 18.4238C6.89909 18.5345 7.10742 18.6647 7.32227 18.8145C7.54362 18.9642 7.78451 19.0944 8.04492 19.2051C8.30534 19.3223 8.60482 19.3809 8.94336 19.3809C9.29492 19.3809 9.60417 19.3223 9.87109 19.2051C10.1445 19.0944 10.3952 18.9642 10.623 18.8145C10.8574 18.6647 11.082 18.5345 11.2969 18.4238C11.5182 18.3066 11.7493 18.248 11.9902 18.248ZM1.53125 23.0527C1.31641 23.0527 1.13086 22.9746 0.974609 22.8184C0.82487 22.6621 0.75 22.4766 0.75 22.2617C0.75 22.0469 0.82487 21.8613 0.974609 21.7051C1.13086 21.5553 1.31641 21.4805 1.53125 21.4805H22.459C22.6738 21.4805 22.8561 21.5553 23.0059 21.7051C23.1621 21.8613 23.2402 22.0469 23.2402 22.2617C23.2402 22.4766 23.1621 22.6621 23.0059 22.8184C22.8561 22.9746 22.6738 23.0527 22.459 23.0527H1.53125Z" fill="#FF2B00"/>
</svg>
