<svg width="24" height="24" viewBox="0 0 24 24" fill="none" xmlns="http://www.w3.org/2000/svg">
<path d="M11.1016 22.1543C10.8477 22.1543 10.6328 22.0827 10.457 21.9395C10.2878 21.8027 10.1706 21.6074 10.1055 21.3535L9.59766 19.2051C9.40885 19.14 9.22331 19.0716 9.04102 19C8.85872 18.9284 8.6862 18.8535 8.52344 18.7754L6.64844 19.9277C6.43359 20.0579 6.21224 20.1133 5.98438 20.0938C5.76302 20.0742 5.56445 19.9766 5.38867 19.8008L4.13867 18.5508C3.96289 18.375 3.86198 18.1699 3.83594 17.9355C3.81641 17.7012 3.87826 17.4798 4.02148 17.2715L5.16406 15.4062C5.08594 15.237 5.01107 15.0645 4.93945 14.8887C4.86784 14.7129 4.80599 14.5371 4.75391 14.3613L2.58594 13.8438C2.33203 13.7852 2.13672 13.6712 2 13.502C1.86328 13.3262 1.79492 13.1113 1.79492 12.8574V11.0898C1.79492 10.8424 1.86328 10.6341 2 10.4648C2.13672 10.2891 2.33203 10.1719 2.58594 10.1133L4.73438 9.5957C4.79297 9.39388 4.85807 9.20508 4.92969 9.0293C5.00781 8.85352 5.07943 8.6875 5.14453 8.53125L4.00195 6.63672C3.86523 6.42188 3.80339 6.20378 3.81641 5.98242C3.83594 5.76107 3.93685 5.5625 4.11914 5.38672L5.38867 4.12695C5.56445 3.95117 5.75977 3.85026 5.97461 3.82422C6.18945 3.79818 6.4043 3.85026 6.61914 3.98047L8.51367 5.15234C8.67643 5.06771 8.84896 4.98958 9.03125 4.91797C9.22005 4.83984 9.40885 4.76823 9.59766 4.70312L10.1055 2.54492C10.1706 2.29753 10.2878 2.10221 10.457 1.95898C10.6328 1.81576 10.8477 1.74414 11.1016 1.74414H12.8984C13.1523 1.74414 13.3639 1.81576 13.5332 1.95898C13.709 2.10221 13.8262 2.29753 13.8848 2.54492L14.3926 4.72266C14.5944 4.78776 14.7832 4.85612 14.959 4.92773C15.1413 4.99935 15.3105 5.07747 15.4668 5.16211L17.3809 3.98047C17.5892 3.85026 17.7975 3.80143 18.0059 3.83398C18.2207 3.86654 18.4193 3.96419 18.6016 4.12695L19.8809 5.38672C20.0632 5.5625 20.1608 5.76107 20.1738 5.98242C20.1868 6.20378 20.1283 6.42188 19.998 6.63672L18.8457 8.53125C18.9108 8.6875 18.9792 8.85352 19.0508 9.0293C19.1289 9.20508 19.2005 9.39388 19.2656 9.5957L21.4141 10.1133C21.6615 10.1719 21.8535 10.2891 21.9902 10.4648C22.1335 10.6341 22.2051 10.8424 22.2051 11.0898V12.8574C22.2051 13.1113 22.1335 13.3262 21.9902 13.502C21.8535 13.6712 21.6615 13.7852 21.4141 13.8438L19.2461 14.3613C19.1875 14.5371 19.1224 14.7129 19.0508 14.8887C18.9857 15.0645 18.9108 15.237 18.8262 15.4062L19.9785 17.2715C20.1217 17.4798 20.1803 17.7012 20.1543 17.9355C20.1348 18.1699 20.0371 18.375 19.8613 18.5508L18.6016 19.8008C18.4258 19.9766 18.224 20.0742 17.9961 20.0938C17.7747 20.1133 17.5599 20.0579 17.3516 19.9277L15.4668 18.7754C15.304 18.8535 15.1315 18.9284 14.9492 19C14.7669 19.0716 14.5814 19.14 14.3926 19.2051L13.8848 21.3535C13.8262 21.6074 13.709 21.8027 13.5332 21.9395C13.3639 22.0827 13.1523 22.1543 12.8984 22.1543H11.1016ZM12 15.3965C12.6315 15.3965 13.2077 15.2435 13.7285 14.9375C14.2493 14.625 14.666 14.2083 14.9785 13.6875C15.291 13.1602 15.4473 12.5807 15.4473 11.9492C15.4473 11.3177 15.291 10.7415 14.9785 10.2207C14.666 9.69336 14.2493 9.27669 13.7285 8.9707C13.2077 8.6582 12.6315 8.50195 12 8.50195C11.362 8.50195 10.7826 8.6582 10.2617 8.9707C9.74089 9.27669 9.32422 9.69336 9.01172 10.2207C8.70573 10.7415 8.55273 11.3177 8.55273 11.9492C8.55273 12.5807 8.70573 13.1602 9.01172 13.6875C9.32422 14.2083 9.74089 14.625 10.2617 14.9375C10.7826 15.2435 11.362 15.3965 12 15.3965Z" fill="#FF2B00"/>
</svg>
